<svg xmlns="http://www.w3.org/2000/svg" version="1.1" xmlns:xlink="http://www.w3.org/1999/xlink" width="192px" height="192px"><svg width="192px" height="192px" viewBox="0 0 192 192" version="1.1" xmlns="http://www.w3.org/2000/svg" xmlns:xlink="http://www.w3.org/1999/xlink">
    <title>a4m • apps for monday.com</title>
    <g stroke="none" stroke-width="1" fill="none" fill-rule="evenodd">
        <g id="SvgjsG1013">
            <rect fill="#FFFFFF" x="0" y="0" width="192" height="192"></rect>
            <rect id="SvgjsRect1012" fill="#0D4BD0" x="0" y="0" width="192" height="175"></rect>
            <rect id="SvgjsRect1011" fill="#78ADFE" x="0" y="175" width="96" height="17"></rect>
            <rect id="SvgjsRect1010" fill="#2A7EFF" x="96" y="175" width="96" height="17"></rect>
            <g transform="translate(11.904143, 90.452000)" fill-rule="nonzero">
                <path d="M20.09,59.122 C23.9166667,59.122 27.1966667,58.2063333 29.93,56.375 C32.6633333,54.5436667 34.604,52.0973333 35.752,49.036 L35.752,49.036 L35.752,58.548 L47.232,58.548 L47.232,13.12 L35.752,13.12 L35.752,22.55 C34.604,19.4886667 32.6633333,17.056 29.93,15.252 C27.1966667,13.448 23.9166667,12.546 20.09,12.546 C16.2633333,12.546 12.8193333,13.4753333 9.758,15.334 C6.69666667,17.1926667 4.305,19.885 2.583,23.411 C0.861,26.937 -1.77635684e-14,31.078 -1.77635684e-14,35.834 C-1.77635684e-14,40.59 0.861,44.731 2.583,48.257 C4.305,51.783 6.69666667,54.4753333 9.758,56.334 C12.8193333,58.1926667 16.2633333,59.122 20.09,59.122 Z M23.698,48.954 C20.09,48.954 17.1926667,47.7923333 15.006,45.469 C12.8193333,43.1456667 11.726,39.934 11.726,35.834 C11.726,31.734 12.8193333,28.5086667 15.006,26.158 C17.1926667,23.8073333 20.09,22.632 23.698,22.632 C27.1966667,22.632 30.0803333,23.821 32.349,26.199 C34.6176667,28.577 35.752,31.7886667 35.752,35.834 C35.752,39.8246667 34.6176667,43.009 32.349,45.387 C30.0803333,47.765 27.1966667,48.954 23.698,48.954 Z" id="SvgjsPath1009" fill="#FFFFFF"></path>
                <path d="M87.2245714,58.548 L87.2245714,46.904 L94.7685714,46.904 L94.7685714,36.9 L87.2245714,36.9 L87.2245714,1.13686838e-13 L74.8425714,1.13686838e-13 L47.1265714,37.31 L47.1265714,46.904 L75.5805714,46.904 L75.5805714,58.548 L87.2245714,58.548 Z M76.4825714,36.9 L58.9345714,36.9 L76.4825714,13.53 L76.4825714,36.9 Z" id="SvgjsPath1008" fill="#78ADFE"></path>
                <path d="M105.651143,58.548 L105.651143,34.44 C105.651143,30.5586667 106.60781,27.6066667 108.521143,25.584 C110.434476,23.5613333 113.00381,22.55 116.229143,22.55 C119.345143,22.55 121.791476,23.493 123.568143,25.379 C125.34481,27.265 126.233143,29.9573333 126.233143,33.456 L126.233143,33.456 L126.233143,58.548 L137.713143,58.548 L137.713143,34.44 C137.713143,30.5586667 138.66981,27.6066667 140.583143,25.584 C142.496476,23.5613333 145.06581,22.55 148.291143,22.55 C151.407143,22.55 153.853476,23.493 155.630143,25.379 C157.40681,27.265 158.295143,29.9573333 158.295143,33.456 L158.295143,33.456 L158.295143,58.548 L169.775143,58.548 L169.775143,32.144 C169.775143,25.8573333 168.176143,21.0056667 164.978143,17.589 C161.780143,14.1723333 157.420476,12.464 151.899143,12.464 C148.400476,12.464 145.243476,13.3796667 142.428143,15.211 C139.61281,17.0423333 137.494476,19.516 136.073143,22.632 C134.706476,19.352 132.670143,16.8373333 129.964143,15.088 C127.258143,13.3386667 124.07381,12.464 120.411143,12.464 C116.967143,12.464 113.94681,13.2703333 111.350143,14.883 C108.753476,16.4956667 106.85381,18.778 105.651143,21.73 L105.651143,21.73 L105.651143,13.12 L94.0891429,13.12 L94.0891429,58.548 L105.651143,58.548 Z" id="SvgjsPath1007" fill="#FFFFFF"></path>
            </g>
        </g>
    </g>
</svg><style>@media (prefers-color-scheme: light) { :root { filter: none; } }
@media (prefers-color-scheme: dark) { :root { filter: none; } }
</style></svg>